<svg width="8" height="4" viewBox="0 0 8 4" fill="none" xmlns="http://www.w3.org/2000/svg">
<g opacity="0.8" clip-path="url(#clip0_3_13)">
<rect width="1" height="1" fill="#3A3B3F"/>
<rect x="1" width="1" height="1" fill="#38393B"/>
<rect x="2" width="1" height="1" fill="#38393B"/>
<rect x="3" width="1" height="1" fill="#38393B"/>
<rect x="4" width="1" height="1" fill="#47494C"/>
<rect x="5" width="1" height="1" fill="#47484B"/>
<rect x="6" width="1" height="1" fill="#45474B"/>
<rect x="7" width="1" height="1" fill="#4C4F51"/>
<rect y="1" width="1" height="1" fill="#404245"/>
<rect x="1" y="1" width="1" height="1" fill="#38393B"/>
<rect x="2" y="1" width="1" height="1" fill="#38393B"/>
<rect x="3" y="1" width="1" height="1" fill="#393A3C"/>
<rect x="4" y="1" width="1" height="1" fill="#47494B"/>
<rect x="5" y="1" width="1" height="1" fill="#393A3D"/>
<rect x="6" y="1" width="1" height="1" fill="#38393B"/>
<rect x="7" y="1" width="1" height="1" fill="#404145"/>
<rect y="2" width="1" height="1" fill="#47494C"/>
<rect x="1" y="2" width="1" height="1" fill="#47484B"/>
<rect x="2" y="2" width="1" height="1" fill="#45474B"/>
<rect x="3" y="2" width="1" height="1" fill="#4C4F51"/>
<rect x="4" y="2" width="1" height="1" fill="#3A3B3F"/>
<rect x="5" y="2" width="1" height="1" fill="#38393B"/>
<rect x="6" y="2" width="1" height="1" fill="#38393B"/>
<rect x="7" y="2" width="1" height="1" fill="#38393B"/>
<rect y="3" width="1" height="1" fill="#47494B"/>
<rect x="1" y="3" width="1" height="1" fill="#393A3D"/>
<rect x="2" y="3" width="1" height="1" fill="#38393B"/>
<rect x="3" y="3" width="1" height="1" fill="#404145"/>
<rect x="4" y="3" width="1" height="1" fill="#404245"/>
<rect x="5" y="3" width="1" height="1" fill="#38393B"/>
<rect x="6" y="3" width="1" height="1" fill="#38393B"/>
<rect x="7" y="3" width="1" height="1" fill="#393A3C"/>
</g>
<defs>
<clipPath id="clip0_3_13">
<rect width="8" height="4" fill="white"/>
</clipPath>
</defs>
</svg>
