<svg width="88" height="635" viewBox="0 0 88 635" fill="none" xmlns="http://www.w3.org/2000/svg">
<path d="M14 620.76V634.56H2.00003L2.00003 593.76H14V607.56H86V620.76H14Z" fill="white" fill-opacity="0.1"/>
<path d="M2.00003 587.369L2.00003 574.169H86V587.369H2.00003Z" fill="white" fill-opacity="0.1"/>
<path d="M2.00003 564.283L2.00003 545.443L62.12 537.043V536.803L2.00003 528.403L2.00003 509.563H86V522.043H22.4V522.283L86 531.883V542.923L22.4 552.523V552.763H86V564.283H2.00003Z" fill="white" fill-opacity="0.1"/>
<path d="M2.00003 499.713L2.00003 463.713H14L14 486.513H36.2V468.393H48.2V486.513L74 486.513V463.713H86L86 499.713H2.00003Z" fill="white" fill-opacity="0.1"/>
<path d="M2.00003 436.9L2.00003 420.34L52.28 407.5V407.26H2.00002L2.00002 395.5H86V409.06L24.68 424.9V425.14H86V436.9H2.00003Z" fill="white" fill-opacity="0.1"/>
<path d="M87.2 366.609C87.2 373.089 85.36 378.049 81.68 381.489C78 384.929 72.8 386.649 66.08 386.649H21.92C15.2 386.649 10 384.929 6.32003 381.489C2.64002 378.049 0.800024 373.089 0.800024 366.609C0.800024 360.129 2.64002 355.169 6.32002 351.729C10 348.289 15.2 346.569 21.92 346.569H66.08C72.8 346.569 78 348.289 81.68 351.729C85.36 355.169 87.2 360.129 87.2 366.609ZM75.2 366.609C75.2 362.049 72.44 359.769 66.92 359.769H21.08C15.56 359.769 12.8 362.049 12.8 366.609C12.8 371.169 15.56 373.449 21.08 373.449H66.92C72.44 373.449 75.2 371.169 75.2 366.609Z" fill="white" fill-opacity="0.1"/>
<path d="M2.00002 340.762L2.00002 328.042L66.56 322.162V321.922L2.00002 315.682L2.00002 301.283L66.56 295.042V294.802L2.00002 288.922L2.00002 277.522L86 286.042V302.482L29.36 308.482V308.723L86 314.722L86 332.242L2.00002 340.762Z" fill="white" fill-opacity="0.1"/>
<path d="M87.2 232.547C87.2 239.027 85.36 243.987 81.68 247.427C78 250.867 72.8 252.587 66.08 252.587H21.92C15.2 252.587 10 250.867 6.32002 247.427C2.64002 243.987 0.800019 239.027 0.800018 232.547C0.800018 226.067 2.64002 221.107 6.32002 217.667C10 214.227 15.2 212.507 21.92 212.507H66.08C72.8 212.507 78 214.227 81.68 217.667C85.36 221.107 87.2 226.067 87.2 232.547ZM75.2 232.547C75.2 227.987 72.44 225.707 66.92 225.707H21.08C15.56 225.707 12.8 227.987 12.8 232.547C12.8 237.107 15.56 239.387 21.08 239.387H66.92C72.44 239.387 75.2 237.107 75.2 232.547Z" fill="white" fill-opacity="0.1"/>
<path d="M2.00002 203.58L2.00002 187.02L52.28 174.18V173.94H2.00001L2.00001 162.18H86V175.74L24.68 191.58V191.82H86V203.58H2.00002Z" fill="white" fill-opacity="0.1"/>
<path d="M2.00001 152.369L2.00001 139.169H74V117.449H86L86 152.369H2.00001Z" fill="white" fill-opacity="0.1"/>
<path d="M2.00001 111.119L2.00001 97.9191H86V111.119L2.00001 111.119Z" fill="white" fill-opacity="0.1"/>
<path d="M2.00001 88.0331L2.00001 71.4731L52.28 58.6331V58.3931L2.00001 58.3931L2.00001 46.6331L86 46.6331V60.1931L24.68 76.0331V76.2731L86 76.2731V88.0331L2.00001 88.0331Z" fill="white" fill-opacity="0.1"/>
<path d="M2.00001 36.8222L2.00001 0.822178L14 0.822177L14 23.6222L36.2 23.6222V5.50218L48.2 5.50218L48.2 23.6222L74 23.6222V0.822175L86 0.822174V36.8222L2.00001 36.8222Z" fill="white" fill-opacity="0.1"/>
</svg>
